<svg id="Layer_1" data-name="Layer 1" xmlns="http://www.w3.org/2000/svg" viewBox="0 0 216.94 72.61"><defs><style>.cls-1{fill:#fff;}</style></defs><title>Logo blanco</title><path class="cls-1" d="M11.61-118.16v18H25.25l-.91,8.9H11.61v36.81H2v-72.61H28.61v8.9Z" transform="translate(-1.98 127.06)"/><path class="cls-1" d="M53.15-55,51.06-69.41H40.43L38.34-55H28.7l11-72.1H52L63-55ZM41.7-78.14h8.1l-3.91-37.11h-.27Z" transform="translate(-1.98 127.06)"/><path class="cls-1" d="M82.32-118v63.52H72.69V-118H62.42v-9.09H92.59V-118Z" transform="translate(-1.98 127.06)"/><path class="cls-1" d="M129.86-55v-52.65h-.19L120.77-64h-3.91L108-107.61h-.15V-55H98.72v-72.1h12.63l7.54,34.17h.18l7.45-34.17h13V-55Z" transform="translate(-1.98 127.06)"/><path class="cls-1" d="M170.85-55l-2.1-14.45H158.12L156-55H146.4l11-72.1h12.26l11,72.1ZM159.39-78.14h8.09l-3.9-37.11h-.28Z" transform="translate(-1.98 127.06)"/><path class="cls-1" d="M209.47-55,196.66-97.13V-55h-9.09v-72.1h10.72l11.36,46.38.18-8.49v-37.89h9.09V-55Z" transform="translate(-1.98 127.06)"/></svg>